<svg width="12" height="60" viewBox="0 0 12 60" fill="none" xmlns="http://www.w3.org/2000/svg">
<path d="M0.0300007 5.99938C-0.0537414 5.24094 0.038304 4.47497 0.300201 3.75085C0.562099 3.02674 0.988033 2.36056 1.55053 1.79529C2.11304 1.23002 2.79962 0.778206 3.56599 0.468984C4.33237 0.159762 5.16153 0 6 0C6.83847 0 7.66763 0.159762 8.43401 0.468984C9.20039 0.778206 9.88697 1.23002 10.4495 1.79529C11.012 2.36056 11.4379 3.02674 11.6998 3.75085C11.9617 4.47497 12.0537 5.24094 11.97 5.99938L9.642 40.6361C9.55207 41.4575 9.12954 42.2191 8.45649 42.7731C7.78344 43.3271 6.90793 43.6339 6 43.6339C5.09207 43.6339 4.21656 43.3271 3.54351 42.7731C2.87046 42.2191 2.44794 41.4575 2.358 40.6361L0.0300007 5.99938ZM0 54.5454C0 53.0987 0.632142 51.7113 1.75736 50.6884C2.88258 49.6655 4.4087 49.0908 6 49.0908C7.5913 49.0908 9.11742 49.6655 10.2426 50.6884C11.3679 51.7113 12 53.0987 12 54.5454C12 55.992 11.3679 57.3794 10.2426 58.4024C9.11742 59.4253 7.5913 60 6 60C4.4087 60 2.88258 59.4253 1.75736 58.4024C0.632142 57.3794 0 55.992 0 54.5454Z" fill="black"/>
</svg>
