<svg width="50" height="50" viewBox="0 0 50 50" fill="none" xmlns="http://www.w3.org/2000/svg">
<g clip-path="url(#clip0_94_40)">
<path d="M8.95595 46.4063C8.7122 47.7938 10.0809 48.8781 11.2872 48.2594L25.0059 41.2094L38.7216 48.2594C39.9278 48.8781 41.2966 47.7938 41.0528 46.4094L38.4591 31.6281L49.4653 21.1406C50.4966 20.1594 49.9653 18.3656 48.5841 18.1719L33.2778 15.9969L26.4528 2.475C26.3228 2.20091 26.1177 1.96933 25.8613 1.80717C25.6049 1.64501 25.3078 1.55893 25.0044 1.55893C24.701 1.55893 24.4039 1.64501 24.1475 1.80717C23.8911 1.96933 23.686 2.20091 23.5559 2.475L16.7309 16L1.4247 18.175C0.0465732 18.3688 -0.487802 20.1625 0.540323 21.1438L11.5497 31.6313L8.95595 46.4125V46.4063ZM24.2841 37.7594L12.7653 43.6781L14.9341 31.3125C14.9863 31.0278 14.9671 30.7347 14.8782 30.4593C14.7893 30.1839 14.6335 29.9348 14.4247 29.7344L5.34345 21.0781L18.0059 19.2781C18.2677 19.2373 18.5159 19.1342 18.7296 18.9776C18.9433 18.821 19.1163 18.6154 19.2341 18.3781L24.9997 6.94688L30.7716 18.3781C30.8894 18.6154 31.0624 18.821 31.2761 18.9776C31.4898 19.1342 31.7379 19.2373 31.9997 19.2781L44.6622 21.075L35.5809 29.7313C35.3717 29.932 35.2156 30.1816 35.1267 30.4576C35.0378 30.7336 35.0188 31.0274 35.0716 31.3125L37.2403 43.6781L25.7216 37.7594C25.4991 37.6438 25.252 37.5834 25.0013 37.5834C24.7505 37.5834 24.5066 37.6438 24.2841 37.7594Z" fill="black"/>
</g>
<defs>
<clipPath id="clip0_94_40">
<rect width="50" height="50" fill="white"/>
</clipPath>
</defs>
</svg>
