<svg width="60" height="60" viewBox="0 0 60 60" fill="none" xmlns="http://www.w3.org/2000/svg">
<path d="M24.375 3.75C22.8832 3.75 21.4524 4.34263 20.3975 5.39752C19.3426 6.45242 18.75 7.88316 18.75 9.375V11.25H5.625C4.13316 11.25 2.70242 11.8426 1.64752 12.8975C0.592632 13.9524 0 15.3832 0 16.875L0 22.065L28.5525 29.6775C29.501 29.9301 30.499 29.9301 31.4475 29.6775L60 22.065V16.875C60 15.3832 59.4074 13.9524 58.3525 12.8975C57.2976 11.8426 55.8668 11.25 54.375 11.25H41.25V9.375C41.25 7.88316 40.6574 6.45242 39.6025 5.39752C38.5476 4.34263 37.1168 3.75 35.625 3.75H24.375ZM24.375 7.5H35.625C36.1223 7.5 36.5992 7.69754 36.9508 8.04918C37.3025 8.40081 37.5 8.87772 37.5 9.375V11.25H22.5V9.375C22.5 8.87772 22.6975 8.40081 23.0492 8.04918C23.4008 7.69754 23.8777 7.5 24.375 7.5Z" fill="black"/>
<path d="M0 46.875C0 48.3668 0.592632 49.7976 1.64752 50.8525C2.70242 51.9074 4.13316 52.5 5.625 52.5H54.375C55.8668 52.5 57.2976 51.9074 58.3525 50.8525C59.4074 49.7976 60 48.3668 60 46.875V25.6875L30.4837 33.5512C30.1668 33.6359 29.8332 33.6359 29.5162 33.5512L0 25.6875V46.875Z" fill="black"/>
</svg>
