<svg width="60" height="60" viewBox="0 0 60 60" fill="none" xmlns="http://www.w3.org/2000/svg">
<path d="M23.8484 5.59418C24.1611 2.02564 28.4294 -0.733769 33.0297 0.174585L34.2856 0.426481C36.5136 0.869209 38.4913 2.16686 39.1554 4.10951C40.214 7.22387 41.7202 13.693 39.4537 21.3224C40.1624 21.245 40.8731 21.1801 41.5855 21.1278C45.0164 20.8797 49.6167 20.853 53.6925 21.9293C56.1851 22.5896 58.4756 24.5284 59.4669 26.7878C60.3523 28.8183 60.2368 31.2227 58.3409 33.402C58.6168 33.86 58.8381 34.3218 59.005 34.7875C59.3755 35.8179 59.5487 36.9515 59.5487 38.0545C59.5487 39.1575 59.3755 40.291 59.005 41.3215C58.8173 41.8367 58.5719 42.3634 58.235 42.8634C59.0483 44.3404 58.7499 45.9892 58.2206 47.2449C57.6758 48.4837 56.8829 49.6449 55.8723 50.6836C56.1322 51.2638 56.238 51.8744 56.238 52.4584C56.238 53.6224 55.8098 54.8438 55.0206 55.9391C53.4134 58.1757 50.223 60 45.7142 60H28.8721C25.9608 60 23.7232 59.6909 21.8177 59.168C20.1788 58.694 18.613 58.0743 17.15 57.3207L16.9191 57.2062C14.4938 56.0345 12.1118 54.8819 6.9678 54.4506C3.2818 54.1377 0 51.779 0 48.5502V33.2837C0 30.0396 3.29623 27.8183 6.52991 27.1199C10.6153 26.2344 14.104 24.1162 16.7891 21.7385C19.4839 19.3454 21.1873 16.8532 21.7888 15.483C22.7464 13.2885 23.5019 9.60925 23.8484 5.59799V5.59418Z" fill="black"/>
</svg>
